<?xml version="1.0" encoding="utf-8" ?><svg xmlns="http://www.w3.org/2000/svg" xmlns:xlink="http://www.w3.org/1999/xlink" width="1792" height="576" viewBox="0 0 1792 576"><path fill="#FAE226" d="M591.116 222.68C604.691 220.809 602.326 234.744 597.027 241.519C587.136 254.168 563.078 267.74 547.17 270.46C542.103 270.544 535.356 270.573 533.256 264.758C531.373 247.344 574.151 224.55 591.116 222.68Z"/><defs><linearGradient id="gradient_0" gradientUnits="userSpaceOnUse" x1="377.11044" y1="254.83844" x2="575.78693" y2="321.25931"><stop offset="0" stop-color="#F42020"/><stop offset="1" stop-color="#84365F"/></linearGradient></defs><path fill="url(#gradient_0)" d="M430.379 177.546C430.315 175.399 430.027 172.035 430.308 169.986C433.322 148.064 463.163 154.892 461.269 174.915C460.644 181.528 456.246 185.266 451.242 189.049C446.466 189.319 441.695 189.668 436.93 190.096C431.274 198.557 416.835 215.874 409.807 225.365L409.458 236.449C407.093 238.71 401.967 241.915 399.062 243.851C376.011 290.45 351.021 362.056 424.637 376.626C491.396 389.837 556.752 356.831 611.749 322.442C625.57 312.068 658.943 288.33 670.013 276.67C670.445 271.881 670.502 266.005 674.694 263.139C686.154 255.302 692.968 265.516 694.502 275.405L688.702 282.166C676.358 284.399 672.224 291.267 662.985 298.466C650.549 308.156 627.945 329.655 614.261 335.301C601.143 344.846 569.599 362.354 555.493 368.837C518.088 386.027 469.623 401.467 428.197 393.329C419.928 392.292 413.317 391.042 405.373 388.369C351.987 370.401 354.646 317.098 370.07 273.155C374.321 261.044 379.308 250.838 384.775 239.364C389.63 229.176 380.422 224.496 396.614 218.421C408.69 199.909 414.783 193.056 430.379 177.546Z"/><path fill="#453877" d="M670.013 276.67C670.445 271.881 670.502 266.005 674.694 263.139C686.154 255.302 692.968 265.516 694.502 275.405L688.702 282.166C676.358 284.399 672.224 291.267 662.985 298.466C650.549 308.156 627.945 329.655 614.261 335.301C608.052 334.61 573.245 359.602 563.052 362.555L562.109 361.003C565.038 357.367 566.064 351.293 568.676 349.527C577.616 343.483 607.18 331.278 611.749 322.442C625.57 312.068 658.943 288.33 670.013 276.67Z"/><path fill="#EC2F29" d="M831.404 249.058C837.732 248.702 846.361 249.307 852.903 249.59C858.968 264.016 864.517 282.207 869.618 297.198C877.867 321.44 887.211 344.112 890.135 369.657C893.946 361.283 898.427 345.626 901.872 336.265C908.007 319.595 913.891 302.395 920.049 285.697C924.254 274.296 928.007 259.767 934.35 249.586C944.351 248.776 952.751 249.01 962.712 249.669C961.145 257.946 956.914 267.64 953.756 275.672C946.993 292.123 940.741 309.549 934.171 326.179C925.019 349.342 915.839 372.784 908.124 396.458C901.198 397.091 882.237 397.716 875.993 395.641C870.57 391.979 827.06 263.914 822.532 249.63L831.404 249.058Z"/><defs><linearGradient id="gradient_1" gradientUnits="userSpaceOnUse" x1="1276.6315" y1="342.25821" x2="1369.3928" y2="342.29074"><stop offset="0" stop-color="#2C9A56"/><stop offset="1" stop-color="#283B7C"/></linearGradient></defs><path fill="url(#gradient_1)" d="M1309.64 288.331C1324.59 285.649 1347.2 287.587 1358.38 298.788C1374.4 314.836 1371.4 339.589 1371.34 360.235C1371.35 372.426 1371.43 384.618 1371.59 396.808C1363.36 396.869 1355.12 396.747 1346.9 396.441C1346.61 392.947 1345.98 388.778 1345.54 385.241C1332.71 394.32 1325.22 398.865 1308.96 397.909C1299.38 397.347 1294.98 397.281 1287.07 391.579C1286.52 391.096 1285.99 390.605 1285.46 390.107C1278.97 384.016 1274.22 375.252 1274.44 366.524C1275.24 334.81 1308.02 326.869 1334.07 327.855C1338.31 328.015 1340.18 327.675 1342.92 324.829C1343.29 322.449 1343.39 321.504 1342.08 319.212C1330.83 299.494 1302.9 307.875 1287.25 316.596C1285.92 307.211 1285.22 304.122 1282.22 295.37C1291.46 292.504 1300.02 289.425 1309.64 288.331ZM1318.01 379.328C1329.33 378.546 1336.86 373.601 1342.81 364.205C1343.07 357.618 1343.21 352.207 1343 345.593C1339.29 345.678 1333.56 345.635 1330.03 345.993C1320.46 347.725 1301.34 352.609 1302.96 367.623C1303.66 374.085 1312.14 377.83 1318.01 379.328Z"/><path fill="#29A24D" d="M1219.63 288.332C1232.91 286.205 1249.79 287.03 1261.31 294.739C1259.16 301.644 1257.08 307.743 1255.95 314.915C1248.12 311.603 1242.63 309.732 1233.68 309.437C1200.88 308.357 1186.04 342.679 1206.54 367.034C1217.38 379.91 1240.27 373.717 1255.54 373.923C1257.08 375.246 1257.27 378.104 1257.81 380.455C1259.03 384.536 1261.51 390.074 1259.1 393.893C1253.14 398.494 1225.88 398.498 1217.76 397.597C1151.69 390.263 1149 297.244 1219.63 288.332Z"/><defs><linearGradient id="gradient_2" gradientUnits="userSpaceOnUse" x1="467.08493" y1="245.14354" x2="554.28937" y2="283.25241"><stop offset="0" stop-color="#FFEF25"/><stop offset="1" stop-color="#C4CC3E"/></linearGradient></defs><path fill="url(#gradient_2)" d="M569.539 188.703C567.385 194.061 563.75 191.552 564.364 197.627C566.128 199.938 566.718 201.019 569.347 202.147C573.561 201.335 574.742 197.245 579.293 198.97C567.143 205.91 554.366 212.864 542.602 220.579C526.411 231.199 424.11 302.008 458.444 323.674C487.854 327.778 521.577 312.248 547.718 299.811C548.887 298.863 553.213 296.686 554.728 295.888C565.432 290.248 575.457 284.362 585.51 277.626C586.34 284.403 585.89 285.46 592.043 288.679C582.214 294.901 562.744 307.688 552.239 311.109C535.063 322.033 481.296 340.84 460.39 336.728C450.553 334.792 445.012 331.541 439.439 323.398C438.405 314.916 438.196 309.395 441.533 301.232C458.537 259.628 531.078 206.321 569.539 188.703Z"/><path fill="#8FB946" d="M547.718 299.811C548.887 298.863 553.213 296.686 554.728 295.888C565.432 290.248 575.457 284.362 585.51 277.626C586.34 284.403 585.89 285.46 592.043 288.679C582.214 294.901 562.744 307.688 552.239 311.109L552.194 310.352L551.375 309.647C547.552 311.737 544.408 314.578 540.394 312.542C539.087 310.339 538.824 309.999 539.066 307.481C540.507 304.602 544.687 303.44 547.974 301.447L547.718 299.811Z"/><path fill="#2C367B" d="M1401 241.275C1409.32 240.266 1420.15 240.494 1428.68 240.732C1429.63 277.2 1428.55 314.275 1428.96 350.748C1429.07 360.813 1428.06 386.906 1428.92 395.826C1425.97 397.284 1404.49 397.196 1401.26 396.052L1400.78 391.514C1402.37 344.031 1401.11 289.275 1401 241.275Z"/><path fill="#453877" d="M1400.78 391.514C1408.06 395.577 1425.12 389.689 1428.92 395.826C1425.97 397.284 1404.49 397.196 1401.26 396.052L1400.78 391.514Z"/><path fill="#C5D23D" d="M629.532 99.3719C667.754 87.6101 713.664 72.1417 753.076 87.2011C756.663 92.4237 775.401 100.015 775.608 108.955C774.292 109.954 773.811 110.125 772.329 110.757C770.298 113.774 768.444 115.987 767.967 119.6C765.035 113.569 757.163 100.774 748.954 102.046C745.635 101.086 736.78 97.9728 733.764 97.5755C709.426 94.3701 686.366 98.9445 662.788 104.455C658.954 105.351 645.285 110.83 642.527 110.845C617.503 120.685 594.549 129.241 570.58 142.173C561.738 146.917 553.044 151.931 544.509 157.209C541.423 159.113 531.417 165.638 528.631 166.868L528.2 166.434C525.735 166.12 523.381 168.51 521.06 170.268C519.636 168.11 520.185 160.672 520.175 157.43C523.03 156.168 525.27 154.526 526.556 151.676C527.253 150.562 534.52 146.057 536.073 145.057C566.236 125.626 596.234 112.129 629.532 99.3719Z"/><path fill="#FAE226" d="M629.532 99.3719C631.199 99.3593 632.937 99.3927 634.584 99.1772L635.233 99.9622C631.17 102.079 625.84 103.066 621.596 104.504C613.524 107.238 584.242 118.241 580.021 124.701C582.497 126.621 592.793 128.313 596.824 126.802C605.9 123.399 634.085 108.548 642.527 110.845C617.503 120.685 594.549 129.241 570.58 142.173C561.738 146.917 553.044 151.931 544.509 157.209C541.423 159.113 531.417 165.638 528.631 166.868L528.2 166.434C525.735 166.12 523.381 168.51 521.06 170.268C519.636 168.11 520.185 160.672 520.175 157.43C523.03 156.168 525.27 154.526 526.556 151.676C527.253 150.562 534.52 146.057 536.073 145.057C566.236 125.626 596.234 112.129 629.532 99.3719Z"/><path fill="#FAE226" d="M1087.63 287.393L1095.84 287.598C1095.88 296.801 1095.54 306.54 1095.37 315.783C1086.31 315.044 1082.36 315.115 1073.58 317.368C1054.93 334.705 1061.67 371.358 1060.49 396.477C1051.46 396.612 1042.42 396.659 1033.38 396.617L1032.81 387.727C1032.04 355.37 1031.95 323.001 1032.53 290.641C1039.65 290.033 1048.68 289.959 1055.95 289.709C1057.25 295.406 1057.74 304.037 1058.27 310.046C1064.95 295.858 1071.65 289.877 1087.63 287.393Z"/><path fill="#EC2F29" d="M973.701 289.689C981.356 289.741 989.145 289.649 996.757 290.384L1001.02 290.739C1003.17 293.698 1001.91 384.804 1002.03 397.066L992.692 397.237C985.362 397.379 980.807 397.496 973.51 396.635C972.425 385.477 972.947 358.779 972.975 346.612C973.01 331.37 972.105 303.887 973.701 289.689Z"/><path fill="#FAE226" d="M996.757 290.384L1001.02 290.739C1003.17 293.698 1001.91 384.804 1002.03 397.066L992.692 397.237C989.09 397.003 987.548 396.881 983.985 396.043C990.419 388.317 987.926 386.904 987.787 377.302C987.686 367.546 987.659 357.789 987.706 348.033C987.827 332.941 987.816 317.433 988.546 302.347C988.882 295.426 989.724 296.537 985.192 291.207C987.288 290.356 994.115 290.443 996.757 290.384Z"/><path fill="#C5D23D" d="M1119.54 290.038C1122.47 289.957 1141.63 288.767 1144.08 291.053C1144.96 291.875 1145.32 300.984 1145.29 302.813C1145.2 334.136 1145.17 365.416 1145.49 396.74L1132.44 396.713L1117.14 396.527C1116.63 385.354 1115.51 296.493 1117.89 290.466L1119.54 290.038Z"/><path fill="#53AC50" d="M1119.54 290.038C1122.47 289.957 1141.63 288.767 1144.08 291.053C1144.96 291.875 1145.32 300.984 1145.29 302.813C1145.2 334.136 1145.17 365.416 1145.49 396.74L1132.44 396.713C1131.07 388.936 1131.29 297.621 1132.67 291.676L1132.76 291.296C1131.7 290.753 1121.77 290.263 1119.54 290.038Z"/><defs><linearGradient id="gradient_3" gradientUnits="userSpaceOnUse" x1="613.41174" y1="188.16058" x2="674.521" y2="222.36594"><stop offset="0" stop-color="#3B9F4B"/><stop offset="1" stop-color="#008856"/></linearGradient></defs><path fill="url(#gradient_3)" d="M609.812 170.135C627.319 162.336 663.786 151.622 683.114 158.417C697.875 163.607 699.745 178.806 693.543 192.097C679.831 221.485 646.179 253.423 619.073 270.33C615.107 273.893 596.68 286.717 592.043 288.679C585.89 285.46 586.34 284.403 585.51 277.626C595.189 271.228 603.882 265.48 613.135 258.418C638.569 239.503 667.066 217.101 682.006 188.417C688.232 176.462 681.229 172.732 671.841 168.864C647.552 173.235 642.462 172.682 617.024 181.436C617.568 177.272 623.464 179.062 626.095 176.281C623.708 172.455 624.464 171.767 625.204 167.541C622.764 164.892 615.864 171.979 609.812 170.135Z"/><path fill="#53AC50" d="M613.135 258.418L613.052 262.399L614.035 262.777C616.915 260.207 616.929 259.379 620.375 258.781C622.218 259.927 623.486 260.813 625.551 261.529L625.876 262.923C622.848 265.731 620.277 265.828 619.049 268.887L619.073 270.33C615.107 273.893 596.68 286.717 592.043 288.679C585.89 285.46 586.34 284.403 585.51 277.626C595.189 271.228 603.882 265.48 613.135 258.418Z"/><path fill="#53AC50" d="M753.076 87.2011C780.938 96.3437 788.404 127.089 779.145 152.157C771.784 172.089 761.147 192.408 747.022 208.286C742.277 215.207 733.629 223.605 730.697 228.481C729.988 225.342 729.868 224.699 728.055 222.081C725.119 219.94 722.972 219.995 719.38 219.606C723.391 217.282 729.296 209.24 732.439 205.344C748.713 186.051 773.019 149.212 766.802 122.968C764.282 112.328 757.73 107.303 748.954 102.046C757.163 100.774 765.035 113.569 767.967 119.6C768.444 115.987 770.298 113.774 772.329 110.757C773.811 110.125 774.292 109.954 775.608 108.955C775.401 100.015 756.663 92.4237 753.076 87.2011Z"/><path fill="#29A24D" d="M732.439 205.344L736.799 204.454C735.112 207.19 731.627 210.637 729.324 213.075C731.261 216.251 731.812 213.522 734.633 220.143C739.792 215.578 742.355 209.41 747.022 208.286C742.277 215.207 733.629 223.605 730.697 228.481C729.988 225.342 729.868 224.699 728.055 222.081C725.119 219.94 722.972 219.995 719.38 219.606C723.391 217.282 729.296 209.24 732.439 205.344Z"/><path fill="#EC2F29" d="M487.813 178.282L489.67 178.81C492.731 176.827 497.155 173.489 499.909 171.857L500.071 182.753L493.381 189.392L493.704 190.682C488.977 194.93 474.803 204.213 468.342 209.313C468.29 209.748 468.235 210.182 468.179 210.616C467.577 215.196 467.259 218.467 463.194 221.459C461.068 223.022 458.389 223.631 455.798 223.141C447.546 221.662 440.416 209.53 449.052 203.456C452.27 201.457 457.93 201.179 460.925 199.002C470.213 192.248 478.274 184.803 487.813 178.282Z"/><path fill="#029150" d="M730.697 228.481C740.556 267.767 691.228 253.272 702.007 228.206C704.16 223.2 714.425 220.657 719.38 219.606C722.972 219.995 725.119 219.94 728.055 222.081C729.868 224.699 729.988 225.342 730.697 228.481Z"/><path fill="#8FB946" d="M609.812 170.135C615.864 171.979 622.764 164.892 625.204 167.541C624.464 171.767 623.708 172.455 626.095 176.281C623.464 179.062 617.568 177.272 617.024 181.436C611.808 183.811 582.38 198.428 579.293 198.97C574.742 197.245 573.561 201.335 569.347 202.147C566.718 201.019 566.128 199.938 564.364 197.627C563.75 191.552 567.385 194.061 569.539 188.703C574.929 184.874 603.009 172.232 609.812 170.135Z"/><path fill="#F26529" d="M976.134 249.988C1004.9 231.368 1017.53 284.087 978.256 272.72C969.512 267.825 970.157 256.825 976.134 249.988Z"/><path fill="#EC2F29" d="M978.256 272.72C969.512 267.825 970.157 256.825 976.134 249.988C979.359 255.317 980.051 266.864 978.256 272.72Z"/><path fill="#53AC50" d="M1125.04 247.015C1128.62 246.745 1134.63 246.244 1137.77 247.922C1151.17 255.088 1150.29 269.192 1135.81 273.87C1113.58 277.147 1106.74 254.491 1125.04 247.015Z"/><path fill="#EC8924" d="M487.813 178.282C498.608 169.167 514.356 158.744 526.556 151.676C525.27 154.526 523.03 156.168 520.175 157.43C520.185 160.672 519.636 168.11 521.06 170.268C523.381 168.51 525.735 166.12 528.2 166.434L528.631 166.868C522.975 171.833 501.276 185.584 493.704 190.682L493.381 189.392L500.071 182.753L499.909 171.857C497.155 173.489 492.731 176.827 489.67 178.81L487.813 178.282Z"/></svg>