<?xml version="1.0" encoding="utf-8" ?><svg xmlns="http://www.w3.org/2000/svg" xmlns:xlink="http://www.w3.org/1999/xlink" width="600" height="227" viewBox="0 0 600 227"><path fill="#0084CC" d="M202.694 44.5686C230.841 44.2386 259.692 44.556 287.867 44.5562L456.242 44.5565L542.304 44.57L567.546 44.5342C577.303 44.5057 586.602 43.1913 594.09 50.8918C597.272 54.1633 598.705 57.3849 600 61.7004L600 163.978C597.88 170.803 595.34 175.172 588.775 178.831C585.447 180.687 581.56 181.263 577.776 181.277C567.533 181.315 557.257 181.295 547.01 181.287L489.719 181.276L312.87 181.272L233.432 181.272L212.464 181.273C210.061 181.272 203.654 181.402 201.643 181.023C209.09 170.295 213.426 163.597 218.08 151.146C228.442 123.092 227.199 92.0658 214.624 64.9304C212.681 60.8189 210.49 56.8292 208.062 52.9833C206.804 51.0293 203.528 46.3955 202.694 44.5686Z"/><path fill="#FEFEFE" d="M252.781 66.4744C269.537 66.3527 280.031 63.4204 278.369 84.5418C277.948 89.8937 278.875 96.3136 278.098 101.791C277.553 105.63 276.801 106.762 273.795 109.04C269.12 111.604 258.377 110.759 252.778 110.716C252.797 105.04 252.883 98.154 252.798 92.3999C252.777 90.9909 251.001 92.0121 250.055 91.3674C249.815 89.9669 249.936 87.8311 250.464 86.4917C251.272 85.7886 250.971 85.9824 252.278 86.0238C253.272 84.951 252.795 68.7616 252.781 66.4744Z"/><path fill="#0084CC" d="M261.219 72.8237C263.576 72.7941 266.875 72.3867 268.8 73.9371C269.645 74.6177 269.682 75.7917 269.783 76.8128C270.088 79.9124 270.399 101.46 269.17 102.923C268.009 104.305 266.188 104.305 264.531 104.435L261.252 104.397L261.212 91.5149L266.337 91.6184L266.346 86.0162L261.274 86.09L261.219 72.8237Z"/><path fill="#FEFEFE" d="M487.29 66.4671C489.442 66.4487 491.534 66.4064 493.76 66.4166C500.385 66.4469 509.872 65.1402 511.799 73.6802C512.365 76.1868 512.266 79.4499 511.592 81.9288C510.896 84.4885 509.125 85.777 506.93 86.9324C509.264 88.0395 510.448 88.7725 511.785 91.2385C513.468 94.344 513.136 101.682 512.069 104.913C508.189 112.827 494.948 110.803 487.31 110.786L487.29 66.4671Z"/><path fill="#0084CC" d="M495.653 90.648C503.222 90.8323 504.936 90.9038 504.538 99.313C504.444 101.3 504.679 101.806 503.371 103.562C500.671 104.681 498.473 104.441 495.591 104.356C495.578 99.9129 495.472 95.0576 495.653 90.648Z"/><path fill="#0084CC" d="M495.585 72.8072C497.325 72.7964 500.289 72.645 501.821 73.4079C504.512 74.7474 503.965 80.9846 502.737 83.1248C500.381 84.5108 498.247 84.3634 495.591 84.3431L495.585 72.8072Z"/><path fill="#FEFEFE" d="M395.379 66.0306C402.443 65.8482 408.55 68.2832 408.718 76.2562C408.898 84.8062 409.197 94.2281 408.483 102.743C407.988 108.656 402.524 110.768 397.255 111.202C380.923 111.629 383.575 99.4923 383.517 87.421C383.466 76.8001 381.627 66.8863 395.379 66.0306Z"/><path fill="#0084CC" d="M395.771 72.4241C396.705 72.4643 397.872 72.5811 398.701 73.022C399.341 73.362 399.98 74.0098 400.19 74.718C400.857 76.9712 400.813 101.512 399.953 103.005C399.307 104.127 397.952 104.472 396.791 104.783C395.827 104.747 394.525 104.647 393.696 104.144C392.899 103.66 392.54 103.047 392.341 102.148C391.679 99.1605 391.508 75.5273 392.725 73.8149C393.381 72.8914 394.735 72.6334 395.771 72.4241Z"/><path fill="#FEFEFE" d="M558.256 66.0184C565.268 65.8293 571.975 67.2471 572.661 75.6722C572.97 80.9549 572.879 86.3491 572.858 91.6395C572.82 101.453 574.187 109.944 561.907 111.161C550.204 111.734 546.948 106.226 547.54 95.568C547.687 92.9212 547.448 89.5051 547.529 86.8004C547.842 76.3729 545.416 67.9201 558.256 66.0184Z"/><path fill="#0084CC" d="M559.803 72.4268C560.69 72.463 561.798 72.5815 562.596 72.9713C563.242 73.2866 563.898 73.8599 564.126 74.5615C564.83 76.7313 564.819 101.382 563.977 102.913C563.334 104.082 562.083 104.431 560.893 104.773C559.89 104.75 558.438 104.648 557.583 104.092C556.79 103.577 556.498 102.98 556.315 102.064C555.706 99.0091 555.508 75.5174 556.722 73.8469C557.443 72.8562 558.68 72.6411 559.803 72.4268Z"/><path fill="#FEFEFE" d="M572.883 122.606L573.361 122.706C573.675 123.357 573.524 124.884 573.496 125.679C561.396 125.465 548.682 125.646 536.541 125.645L465.933 125.643L253.977 125.645C253.736 125.595 253.534 125.421 253.314 125.275C253.116 124.34 253.152 124.102 253.25 123.142C253.957 122.645 255.113 122.566 255.969 122.572C266.741 122.657 277.565 122.625 288.333 122.625L357.271 122.624L572.883 122.606Z"/><path fill="#FEFEFE" d="M414.054 66.4722L424.667 66.446C427.303 75.2534 430.349 84.3692 433.123 93.1924C433.284 91.2789 433.08 86.6584 433.064 84.5043L432.993 66.4742L440.554 66.4709C440.112 80.257 440.515 96.8257 440.53 110.756L434.893 110.778L431.867 110.775L421.633 78.7627C421.311 88.6445 421.661 100.72 421.656 110.763L414.14 110.765C414.178 109.007 414.176 107.15 414.149 105.392C413.951 92.4762 414.465 79.3734 414.054 66.4722Z"/><path fill="#FEFEFE" d="M524.171 66.4589L536.528 66.4483C538.409 80.446 542.568 96.4189 544.788 110.757L536.413 110.78C535.94 108.444 535.51 106.1 535.124 103.748L534.963 103.38C533.975 102.916 526.323 103.104 524.839 103.115C524.412 105.693 523.951 108.265 523.458 110.83C521.053 110.716 518.141 110.759 515.698 110.734C516.863 106.133 517.849 99.9779 518.762 95.1839L524.171 66.4589Z"/><path fill="#0084CC" d="M529.187 78.196C530.17 78.4336 529.926 78.455 530.687 79.4655C531.275 81.3267 533.35 93.9471 533.831 96.6252C531.227 96.6633 528.567 96.6411 525.958 96.6459C527.145 91.3442 528.337 83.6628 529.187 78.196Z"/><path fill="#2D8EC9" d="M529.187 78.196C529.404 76.6013 529.567 75.6797 529.977 74.126C530.272 75.9076 530.596 77.6598 530.687 79.4655C529.926 78.455 530.17 78.4336 529.187 78.196Z"/><path fill="#FEFEFE" d="M289.719 66.3658C292.506 66.6286 298.979 66.4619 302.093 66.4924C302.314 68.3187 302.684 70.5468 303.076 72.3422C305.831 84.9623 307.559 98.1824 310.46 110.734L301.836 110.707C301.467 108.391 301.073 106.079 300.655 103.771L300.443 103.335C299.338 102.992 292.203 103.097 290.449 103.075C290.054 105.556 289.495 108.268 289.036 110.758L281.296 110.708C284.185 95.9425 286.992 81.1616 289.719 66.3658Z"/><path fill="#0084CC" d="M295.162 75.4188C296.598 76.9546 298.749 93.1496 299.36 96.5991L296.544 96.6588L291.442 96.6576C292.942 90.6043 294.17 81.6639 295.162 75.4188Z"/><path fill="#FEFEFE" d="M369.928 66.475L378.512 66.4591C378.176 80.7325 378.487 96.2755 378.484 110.653C377.535 110.856 371.317 110.764 369.916 110.757C370.095 104.782 369.959 98.0553 369.975 92.0237L360.633 92.0182L360.642 110.768L352.337 110.786L352.322 66.4697L360.686 66.4508C360.552 72.6983 360.654 79.315 360.646 85.5919L369.989 85.5578C369.851 79.3323 369.945 72.7311 369.928 66.475Z"/><path fill="#FEFEFE" d="M456.048 66.0161L456.427 66.0012C468.608 65.5558 470.196 71.0288 470.443 81.5903C468.304 81.441 464.629 81.5483 462.38 81.5466C462.491 78.2243 463.404 72.7317 458.678 72.4815C455.092 72.2916 453.843 74.0995 453.911 77.3716C453.922 83.2269 454.081 86.9839 453.912 93.0237C453.673 97.835 453.338 109.369 461.422 103.468C462.969 102.339 462.475 94.4261 462.457 92.4905L458.568 92.4949L458.583 87.5048L458.629 86.5632C459.976 85.5265 468.288 86.0105 470.386 86.0512C470.051 94.6026 473.283 109.354 461.552 110.922C445.802 113.075 444.667 103.57 445.488 90.7791C446.175 80.0726 441.7 68.042 456.048 66.0161Z"/><path fill="#FEFEFE" d="M521.646 138.044C522.581 138.153 523.739 138.199 524.696 138.265C524.153 142.515 523.72 143.632 519.848 145.728C521.973 151.333 522.539 158.373 519.257 163.62C515.543 169.559 509.197 169.399 503.883 165.893C499.081 161.183 498.639 152.515 501.127 146.513C502.243 143.823 504.394 141.929 507.082 140.858C511.513 139.093 514.688 141.249 518.623 143.067C521.099 142.211 521.206 140.365 521.646 138.044Z"/><path fill="#0084CC" d="M508.711 143.564C516.683 142.89 518.095 148.609 517.917 155.208C517.799 159.583 516.911 163.199 512.454 164.983C502.923 166.061 502.204 155.292 504.074 148.674C504.779 146.18 506.451 144.643 508.711 143.564Z"/><path fill="#FEFEFE" d="M345.722 140.388C351.715 140.146 356.191 142.496 357.687 148.477C359.694 156.496 358.219 165.624 349.467 168.137C342.568 168.596 338.079 165.448 336.777 158.44C335.437 151.231 337.238 141.906 345.722 140.388Z"/><path fill="#0084CC" d="M345.541 143.561C353.523 142.934 354.934 148.802 354.734 155.365C354.604 159.604 353.558 163.338 349.198 164.973C342.036 165.788 339.984 160.204 340.075 154.244C340.147 149.536 340.87 145.711 345.541 143.561Z"/><path fill="#FEFEFE" d="M285.293 140.403C290.993 140.077 295.806 142.196 297.304 147.943C299.494 156.347 298.239 165.378 289.226 168.16C282.915 168.39 278.27 166.056 276.771 159.382C275.116 152.01 276.578 142.303 285.293 140.403Z"/><path fill="#0084CC" d="M285.372 143.545C293.01 142.984 294.713 148.491 294.587 154.997C294.506 159.238 293.455 163.262 289.095 164.957C281.728 165.829 279.739 160.142 279.867 154.022C279.964 149.324 280.712 145.676 285.372 143.545Z"/><path fill="#FEFEFE" d="M323.406 66.4668L349.115 66.4719L349.093 72.8758L340.43 72.7981L340.445 101.784L340.46 110.753L331.996 110.759L332.003 72.8352L323.415 72.9137L323.406 66.4668Z"/><path fill="#FEFEFE" d="M253.707 140.604C259.304 140.558 269.444 139.019 271.286 145.837C272.317 149.652 270.46 151.427 267.863 153.674C272.373 155.765 273.013 159.195 271.468 163.553C268.081 169.37 259.662 167.876 253.712 167.83L253.707 140.604Z"/><path fill="#0084CC" d="M257.47 155.161C260.637 155.352 263.999 154.658 266.923 156.362C269.647 157.949 268.837 161.208 267.399 163.419C264.584 165.41 260.938 164.935 257.501 164.906L257.47 155.161Z"/><path fill="#0084CC" d="M257.497 143.59C260.614 143.808 264.36 143.173 267.016 145.246C268.948 146.755 267.727 149.579 266.449 151.096C263.868 152.698 260.494 152.314 257.491 152.267L257.497 143.59Z"/><path fill="#FEFEFE" d="M363.497 140.55L367.044 140.548C371.666 147.418 376.231 154.693 380.704 161.672C380.506 154.834 380.624 147.46 380.611 140.582L384.325 140.577L384.298 167.726C383.519 167.904 381.548 167.803 380.664 167.786C376.094 161.021 371.609 153.876 367.095 147.031C367.244 153.96 367.283 160.89 367.21 167.82L363.497 167.823L363.497 140.55Z"/><path fill="#FEFEFE" d="M527.042 140.556L530.655 140.549C534.734 147.149 539.974 155.29 544.37 161.641C544.316 158.87 544.073 142.945 544.486 140.885C545.374 140.413 546.785 140.556 547.838 140.568C547.841 148.422 548.241 160.422 547.74 167.884L544.224 167.757C539.624 161.015 535.038 153.718 530.549 146.857C530.956 153.181 530.751 161.361 530.756 167.845L527.06 167.797L527.042 140.556Z"/><path fill="#FEFEFE" d="M497.583 139.012C498.417 139.023 499.266 138.949 499.965 139.381C501.381 141.136 500.368 142.87 499.115 144.429C497.411 146.548 496.159 146.958 493.56 147.189C493.619 152.306 494.796 161.408 491.234 165.37C487.082 169.989 475.601 169.009 474.495 162.086C473.515 155.952 473.992 148.109 474.019 141.692C474.017 141.422 474.126 141.093 474.195 140.818C475.063 140.332 476.537 140.538 477.588 140.585C477.594 146.997 477.247 153.535 477.684 159.915C478.173 167.051 489.16 167.022 489.792 160.314C490.39 153.953 490.042 147.053 490.022 140.603L493.632 140.54C493.582 141.656 493.499 142.515 493.713 143.626C494.307 144.415 493.988 144.216 494.888 144.419C497.077 143.448 497.431 141.097 497.583 139.012Z"/><path fill="#FEFEFE" d="M447.583 140.547L451.41 140.575L451.371 152.336L464.744 152.34L464.716 140.585L468.452 140.559C468.455 143.637 468.726 166.718 468.085 167.802C467.015 167.824 466.235 167.789 465.166 167.711C464.429 166.784 464.744 157.137 464.755 155.293L451.343 155.256L451.407 167.81L447.621 167.842C447.487 158.873 447.592 149.54 447.583 140.547Z"/><path fill="#FEFEFE" d="M562.222 140.397C569.481 139.701 572.382 141.981 574.609 148.699C573.355 148.643 572.038 148.671 570.779 148.676C569.637 144.083 565.756 141.589 561.344 144.042C555.909 147.064 556.304 157.118 558.756 161.873C560.511 165.278 568.701 167.036 570.624 162.978C570.823 162.559 570.941 158.071 570.539 157.534C570.446 157.418 569.813 157.381 569.604 157.355C567.87 157.413 565.969 157.749 564.65 156.791C564.458 155.868 564.501 155.677 564.625 154.734C565.599 153.877 572.584 154.289 574.438 154.304C574.314 157.494 574.414 161.341 574.412 164.582C567.145 170.933 556.409 169.246 554.045 159.509C552.143 151.677 553.491 142.691 562.222 140.397Z"/><path fill="#FEFEFE" d="M398.542 140.363C405.611 139.838 408.582 142.076 410.565 148.7C409.355 148.642 408.042 148.652 406.823 148.638C406.8 148.543 406.775 148.45 406.749 148.356C404.879 141.613 397.318 141.456 394.373 147.263C392.5 152.052 392.34 157.992 395.3 162.584C396.967 165.17 404.837 166.955 406.645 162.985C406.866 162.499 406.858 158.019 406.563 157.488L405.835 157.356C404.392 157.365 401.939 157.588 400.79 157.011C400.279 156.338 400.431 155.061 400.974 154.405C402.697 154.061 408.305 154.284 410.43 154.301C410.371 157.642 410.434 161.162 410.441 164.518C408.77 166.184 406.683 167.373 404.398 167.963C390.727 171.471 386.19 154.823 391.494 144.962C392.93 142.293 395.674 141.011 398.542 140.363Z"/><path fill="#FEFEFE" d="M320.982 140.35C328.364 139.922 330.94 142.622 332.854 149.416C325.557 149.746 330.22 146.247 325.712 143.763C321.898 142.317 317.699 144 316.343 147.73C313.762 154.828 315.361 169.274 326.487 164.225C328.367 162.418 328.436 161.559 329.013 159.019L332.853 159.13C331.677 163.303 330.123 166.775 325.535 167.922C319.272 169.488 313.355 165.902 312.189 159.49C310.726 151.452 311.773 142.358 320.982 140.35Z"/><path fill="#FEFEFE" d="M422.739 140.596L443.727 140.578L443.686 143.787C440.819 143.71 437.952 143.653 435.084 143.617L435.099 159.193L435.101 167.818L431.426 167.826L431.404 143.628C428.649 143.67 425.144 144.447 423.094 143.236C422.528 142.209 422.727 141.858 422.739 140.596Z"/><path fill="#FEFEFE" d="M302.187 57.3494C302.613 57.447 305.638 59.4716 306.227 59.8537C300.886 69.3945 293.909 59.889 289.906 64.4956L289.645 64.6797C288.834 64.7091 286.262 62.9218 285.404 62.3838C291.303 52.7263 297.176 62.718 302.187 57.3494Z"/><path fill="#FEFEFE" d="M392.394 57.4697L399.945 57.4588C401.931 59.6628 404.697 62.3064 406.826 64.4625C404.421 64.3957 400.095 65.0636 398.463 63.3549L396.106 60.7979C395.076 62.0074 393.959 63.2333 392.902 64.4289C390.447 64.3715 387.991 64.3838 385.537 64.4655L392.394 57.4697Z"/><path fill="#FEFEFE" d="M530.985 57.4761C533.808 57.5063 536.632 57.4829 539.454 57.4058C537.135 59.3066 534.762 61.4876 532.51 63.4938C531.062 64.9433 527.74 64.4438 525.709 64.4316L530.985 57.4761Z"/><path fill="#FEFEFE" d="M286.466 133.195C288.913 133.03 292.03 136.397 292.13 138.755L291.371 139.21C289.809 138.632 288.7 137.334 287.707 136.076L287.373 135.883C286.421 136.176 285.557 137.492 284.807 138.371C283.838 138.764 283.471 138.981 282.45 138.859L282.111 138.411C282.37 137.038 285.343 134.329 286.466 133.195Z"/><path fill="#FEFEFE" d="M346.718 133.136C348.994 133.105 352.386 136.489 352.347 138.752L351.842 139.117C349.937 138.572 349.133 137.538 347.908 136.095L347.582 135.874C346.126 136.259 344.889 140.072 342.288 138.603C342.436 137.071 345.483 134.392 346.718 133.136Z"/><path fill="#FEFEFE" d="M286.031 170.635C286.667 170.23 287.473 170.204 288.134 170.567C288.795 170.929 289.206 171.623 289.207 172.377C289.207 173.131 288.796 173.825 288.135 174.188C287.158 174.725 285.931 174.389 285.363 173.43C284.795 172.471 285.09 171.234 286.031 170.635Z"/><path fill="#FEFEFE" d="M102.905 0L122.097 0C127.072 1.2836 132.535 1.39003 137.658 2.6083C161.698 8.32437 183.551 21.4489 199.335 40.5232C200.451 41.8724 201.453 43.3274 202.694 44.5686C203.528 46.3955 206.804 51.0293 208.062 52.9833C210.49 56.8292 212.681 60.8189 214.624 64.9304C227.199 92.0658 228.442 123.092 218.08 151.146C213.426 163.597 209.09 170.295 201.643 181.023C187.261 199.601 167.419 213.207 144.904 219.928C116.027 228.588 84.8815 225.31 58.4412 210.827C28.5898 194.728 7.19669 164.985 1.48497 131.552C0.965872 128.514 0.880558 125.197 0 122.251L0 102.589C0.464424 101.124 1.59408 92.0801 2.13449 89.3438C4.62425 77.2582 9.11736 65.6738 15.428 55.0695C32.1145 27.1034 59.5334 7.73624 91.6514 1.78081C95.3353 1.09774 99.2954 0.912745 102.905 0Z"/><path fill="#0084CC" d="M110.046 25.6139C116.973 25.2322 127.657 26.5004 134.334 28.3586C159.957 35.4894 176.682 49.5241 189.809 72.0823C186.08 74.3151 181.125 79.6682 177.877 82.9139L163.936 96.8077L105.253 154.975C96.2896 145.702 86.3219 136.14 77.1348 127.014L67.6333 117.574C61.2983 111.276 57.4239 106.393 49.2696 114.518C42.9363 120.829 36.5152 125.24 44.999 133.658C57.0185 145.584 69.1318 157.496 81.1308 169.398L92.69 180.965C97.3737 185.671 103.656 194.052 110.543 187.908C115.225 183.731 119.57 179.238 124.022 174.815L150.098 148.891C151.56 147.318 153.288 145.689 154.834 144.18C169.683 129.689 184.149 114.7 199.09 100.313C199.33 102.801 199.518 105.293 199.654 107.789C201.058 131.146 192.984 154.082 177.258 171.411C161.666 188.578 139.911 198.877 116.748 200.058C93.5983 201.225 70.9273 193.185 53.6878 177.694C36.3044 162.061 25.9259 140.104 24.8805 116.751C23.8561 93.783 31.945 71.3396 47.3875 54.3037C64.1275 35.8461 85.4189 26.8182 110.046 25.6139Z"/><path fill="#FEFEFE" d="M114.53 45.4559C122.891 44.9359 123.824 55.2327 117.17 58.2448C109.061 58.8608 107.843 48.1795 114.53 45.4559Z"/><path fill="#0084CC" d="M115.434 47.5852C119.574 48.4604 118.985 53.5168 116.463 56.0442C112.294 55.1422 112.621 49.8579 115.434 47.5852Z"/><path fill="#FEFEFE" d="M48.296 94.3788C56.698 93.2553 61.6136 101.542 53.5982 105.417C45.7049 105.985 40.7313 98.6273 48.296 94.3788Z"/><path fill="#0084CC" d="M48.7495 97.2249C51.0912 97.2717 54.7353 97.7756 55.0675 100.573C54.7059 101.641 54.3183 101.856 53.418 102.574C51.1976 102.551 47.2517 101.626 47.2088 98.9172C47.7155 97.9183 47.7952 97.8046 48.7495 97.2249Z"/><path fill="#FEFEFE" d="M75.7861 57.0237C76.9251 57.8111 81.9844 65.0508 83.4673 66.806C82.736 67.4687 81.6827 68.2345 80.8826 68.8527C78.5029 67.5958 75.1824 66.229 72.6555 65.1159C74.3465 67.0348 75.9944 69.3024 77.5516 71.3523L75.1087 73.2383C72.499 69.9597 70.202 66.4938 67.4833 63.2372C68.2601 62.6181 69.3075 61.892 70.1281 61.2895C71.8588 62.2969 76.0977 64.0172 78.2151 65.0377L73.4402 58.854L75.7861 57.0237Z"/><path fill="#FEFEFE" d="M154.997 57.2266C155.839 57.3537 156.939 58.4041 157.653 58.9821C157.212 61.9599 156.729 64.9313 156.204 67.8955C157.792 65.7124 159.417 63.5566 161.079 61.4291L163.576 63.2731C161.161 66.1465 158.385 70.0428 156.08 73.095C155.073 72.9035 154.235 72.0276 153.434 71.3421C153.935 68.434 154.379 65.5162 154.765 62.5906C153.263 64.4408 151.501 66.9904 150.069 68.9593C149.251 68.3464 148.306 67.5077 147.509 66.8388C149.431 64.8175 153.231 59.5562 154.997 57.2266Z"/><path fill="#FEFEFE" d="M52.9808 80.0365C55.3876 80.9863 61.4912 84.4524 64.0447 85.8145L62.696 88.4989C59.6139 88.5862 56.3464 88.763 53.287 88.4877C55.6682 89.8755 58.7359 90.6766 60.1038 92.5025C60.1984 93.5352 59.8523 93.7293 59.2681 94.7442C58.3564 94.9716 49.4582 89.9772 47.9921 89.197C48.235 88.7081 48.8622 87.4834 49.24 87.183C50.9256 85.8427 56.3311 86.4069 58.5666 86.4526C56.4438 85.1958 53.7346 83.8637 51.5025 82.7017C51.8893 81.9122 52.5375 80.8329 52.9808 80.0365Z"/><path fill="#FEFEFE" d="M100.734 46.5903C102.963 46.3617 107.14 46.4576 106.901 49.7726C105.383 50.2754 103.19 48.6221 100.956 49.308C99.2614 50.7987 100.081 52.6347 100.711 54.5557C101.511 56.9956 103.206 57.467 105.218 55.8734C105.64 54.0562 103.124 54.718 102.335 53.1008C102.858 52.3226 102.823 52.5103 103.78 52.0421L107.549 51.3896L108.567 56.745C98.2167 64.4071 92.7846 50.6125 100.734 46.5903Z"/><path fill="#FEFEFE" d="M86.5719 51.2778C87.1499 51.2628 87.5002 51.5912 88.0021 51.9256C88.2934 54.071 84.7297 54.2651 83.483 56.3156C84.359 59.5182 86.5514 55.7477 88.9002 56.3647C89.4149 57.2573 89.3502 56.8764 89.2521 57.8936C88.6206 58.5201 86.1658 59.5393 85.2225 59.9696L86.7891 62.5871C88.5462 61.5955 90.6136 59.9167 92.4757 60.9031L92.4723 61.8767C91.9765 63.0009 86.5695 65.33 84.9874 66.1614C83.64 63.2964 80.8432 57.4035 79.2555 54.9181C81.3414 54.0449 84.4795 52.343 86.5719 51.2778Z"/><path fill="#FEFEFE" d="M141.643 50.1428C142.345 50.3751 143.982 51.1917 144.723 51.536C144.071 54.5213 143.509 57.7705 142.929 60.7892C144.98 58.2748 146.973 56.0146 149.141 53.5976C149.974 53.9927 150.973 54.3842 151.598 55.0387C151.609 55.9214 151.543 55.7015 150.738 56.5466C148.107 59.2878 145.455 62.0078 142.78 64.7063C141.969 64.1837 140.799 63.5966 139.927 63.1256C140.662 59.0662 140.867 54.4894 141.643 50.1428Z"/><path fill="#FEFEFE" d="M124.105 45.6204L127.457 46.373C127.651 49.6831 127.831 52.7262 127.816 56.0389L132.283 47.2825C133.217 47.4228 134.265 47.4991 135.059 47.9837C135.253 48.9577 134.897 49.1675 134.345 50.2015C132.586 53.209 130.608 56.4497 129.062 59.5418C128.099 59.2397 126.788 59.0018 125.778 58.7878C125.185 54.4033 124.627 50.014 124.105 45.6204Z"/><path fill="#FEFEFE" d="M57.3692 73.9978C58.3297 74.5543 64.0661 79.2321 65.2907 80.1979C66.2153 78.9358 67.3854 76.9059 68.7741 76.4866C69.778 76.7666 69.4377 76.5557 70.1293 77.3556C70.1416 78.1423 69.413 78.867 68.8998 79.5135L65.3037 84.0538C61.9838 81.6126 58.6909 78.8961 55.3178 76.391L57.3692 73.9978Z"/><path fill="#FEFEFE" d="M64.6811 65.8163C66.7493 67.4585 71.4149 72.4328 73.7532 74.5839L71.6849 76.6217C70.7613 76.2847 63.8301 69.1671 62.5986 67.9717L64.6811 65.8163Z"/><path fill="#FEFEFE" d="M94.4201 58.6526C95.1737 58.2812 96.0862 58.564 96.4973 59.2965C96.9085 60.029 96.6746 60.9551 95.9649 61.4046C95.471 61.7175 94.8445 61.7321 94.3365 61.4426C93.8284 61.1531 93.5218 60.6068 93.5393 60.0225C93.5568 59.4381 93.8957 58.9111 94.4201 58.6526Z"/><path fill="#FEFEFE" d="M133.323 58.115C134.063 57.7794 134.937 58.0627 135.339 58.7687C135.741 59.4747 135.539 60.3708 134.873 60.8361C134.384 61.1777 133.744 61.2133 133.22 60.928C132.696 60.6428 132.379 60.0858 132.4 59.4898C132.422 58.8937 132.779 58.3613 133.323 58.115Z"/></svg>